<svg xmlns:mydata="http://www.w4.org/2000/svg" mydata:contrastcolor="25142d" mydata:template="Contrast"
    mydata:presentation="2.5" mydata:layouttype="undefined" mydata:specialfontid="undefined" mydata:id1="199"
    mydata:id2="726" mydata:companyname="ChatU" mydata:companytagline="connect your life" version="1.1"
    xmlns="http://www.w3.org/2000/svg" xmlns:xlink="http://www.w3.org/1999/xlink" viewBox="0 35 550 400">
    <defs>
        <linearGradient x1="65" y1="235" x2="485" y2="235" gradientUnits="userSpaceOnUse" id="color-1555756648">
            <stop offset="0" stop-color="#7b4397"></stop>
            <stop offset="1" stop-color="#dc2430"></stop>
        </linearGradient>
    </defs>
    <g fill="url(#color-1555756648)" fill-rule="none" stroke="none" stroke-width="1" stroke-linecap="butt"
        stroke-linejoin="miter" stroke-miterlimit="10" stroke-dasharray="" stroke-dashoffset="0" font-family="none"
        font-weight="none" font-size="none" text-anchor="none" style="mix-blend-mode: normal">
        <g
            data-paper-data="{&quot;isGlobalGroup&quot;:true,&quot;bounds&quot;:{&quot;x&quot;:65,&quot;y&quot;:177.43861656869973,&quot;width&quot;:420,&quot;height&quot;:115.1227668626006}}">
            <g data-paper-data="{&quot;isSecondaryText&quot;:true}" fill-rule="nonzero">
                <path
                    d="M251.59531,276.312c2.75677,0 4.63373,-1.27085 5.78727,-3.7148l-0.97758,-0.58655c-0.89937,1.54458 -2.09202,2.79588 -3.98852,2.79588c-3.0696,0 -3.79301,-3.0696 -3.79301,-5.5331c0,-1.64233 0.29327,-4.2818 1.91606,-5.20072c0.35193,-0.19552 0.74296,-0.29327 1.11444,-0.29327c1.34906,0 2.63946,1.19265 2.75677,2.63946c0.09776,1.2122 0.78206,1.72054 1.46637,1.72054c0.74296,0 1.50547,-0.62565 1.50547,-1.60323c0,-0.25417 -0.0391,-0.52789 -0.15641,-0.82117c-0.6452,-1.56413 -1.8574,-2.40484 -3.28467,-2.79588c-0.72341,-0.21507 -1.44682,-0.31283 -2.18978,-0.31283c-0.91892,0 -1.83785,0.15641 -2.71767,0.50834c-2.69812,1.05579 -4.26225,3.63659 -4.26225,6.39337c0,0.50834 0.05865,0.99713 0.15641,1.50547c0.44969,2.26798 1.77919,3.98852 4.00807,4.82924c0.82117,0.31283 1.72054,0.46924 2.65902,0.46924z"
                    data-paper-data="{&quot;glyphName&quot;:&quot;C&quot;,&quot;glyphIndex&quot;:0,&quot;firstGlyphOfWord&quot;:true,&quot;word&quot;:1}">
                </path>
                <path
                    d="M271.77907,267.84616c-1.09489,-0.99713 -2.48305,-1.34906 -3.91032,-1.34906c-2.07247,0 -4.10583,0.87982 -4.94655,2.89363c-0.23462,0.567 -0.35193,1.2122 -0.35193,1.95516c0,1.34906 0.46924,2.63946 1.50547,3.53884c1.03623,0.91892 2.34619,1.27085 3.7148,1.27085c1.44682,0 2.89363,-0.41058 3.98852,-1.40771c0.89937,-0.91892 1.40771,-2.18978 1.40771,-3.48018c0,-1.2904 -0.44969,-2.52215 -1.40771,-3.42153zM269.29602,274.08312c-0.27372,0.74296 -0.74296,1.11444 -1.40771,1.11444c-1.11444,0 -1.44682,-0.89937 -1.64233,-1.77919c-0.17596,-0.74296 -0.17596,-1.44682 -0.17596,-2.20933c0,-0.46924 0.01955,-0.93848 0.05865,-1.38816c0.11731,-1.01668 0.48879,-2.36574 1.75964,-2.36574c1.68144,0 1.79875,2.60036 1.79875,3.79301c0,1.2513 -0.13686,2.18978 -0.39103,2.83498z"
                    data-paper-data="{&quot;glyphName&quot;:&quot;o&quot;,&quot;glyphIndex&quot;:1,&quot;word&quot;:1}">
                </path>
                <path
                    d="M285.19797,269.93818c0,1.09489 -0.01955,2.20933 -0.01955,3.30422c0,1.52502 -0.52789,2.44395 -0.99713,2.77633v0.0391h5.12252v-0.0391c-0.44969,-0.33238 -0.95803,-1.23175 -0.95803,-2.77633c0,-1.2122 0.01955,-2.36574 0.01955,-3.57794c0,-1.2122 -0.48879,-2.4244 -1.70099,-2.91319c-0.37148,-0.15641 -0.82117,-0.23462 -1.32951,-0.23462c-0.6452,0 -1.50547,0.19552 -2.07247,0.54744c-0.41058,0.27372 -0.76251,0.6061 -1.15354,0.93848l0.0391,-1.15354l-0.19552,-0.19552l-4.45776,0.25417v0.86027c0.68431,0.05865 1.48592,0.33238 1.48592,1.15354v4.3209c0,1.52502 -0.54744,2.44395 -1.01668,2.77633v0.0391h5.12252v-0.0391c-0.44969,-0.33238 -0.95803,-1.23175 -0.95803,-2.77633c0,-1.32951 0.01955,-2.65902 0.01955,-3.96897c0,0 0.70386,-1.03623 1.83785,-1.03623c0.99713,0 1.2122,0.87982 1.2122,1.70099z"
                    data-paper-data="{&quot;glyphName&quot;:&quot;n&quot;,&quot;glyphIndex&quot;:2,&quot;word&quot;:1}">
                </path>
                <path
                    d="M301.13903,269.93818c0,1.09489 -0.01955,2.20933 -0.01955,3.30422c0,1.52502 -0.52789,2.44395 -0.99713,2.77633v0.0391h5.12252v-0.0391c-0.44969,-0.33238 -0.95803,-1.23175 -0.95803,-2.77633c0,-1.2122 0.01955,-2.36574 0.01955,-3.57794c0,-1.2122 -0.48879,-2.4244 -1.70099,-2.91319c-0.37148,-0.15641 -0.82117,-0.23462 -1.32951,-0.23462c-0.6452,0 -1.50547,0.19552 -2.07247,0.54744c-0.41058,0.27372 -0.76251,0.6061 -1.15354,0.93848l0.0391,-1.15354l-0.19552,-0.19552l-4.45776,0.25417v0.86027c0.68431,0.05865 1.48592,0.33238 1.48592,1.15354v4.3209c0,1.52502 -0.54744,2.44395 -1.01668,2.77633v0.0391h5.12252v-0.0391c-0.44969,-0.33238 -0.95803,-1.23175 -0.95803,-2.77633c0,-1.32951 0.01955,-2.65902 0.01955,-3.96897c0,0 0.70386,-1.03623 1.83785,-1.03623c0.99713,0 1.2122,0.87982 1.2122,1.70099z"
                    data-paper-data="{&quot;glyphName&quot;:&quot;n&quot;,&quot;glyphIndex&quot;:3,&quot;word&quot;:1}">
                </path>
                <path
                    d="M318.72242,272.94913c-0.15641,0.23462 -0.33238,0.46924 -0.52789,0.66475c-0.19552,0.21507 -0.41058,0.39103 -0.62565,0.52789c-0.21507,0.15641 -0.44969,0.27372 -0.70386,0.37148c-0.23462,0.07821 -0.48879,0.11731 -0.76251,0.11731c-0.97758,0 -1.68144,-0.29327 -2.13112,-0.87982c-0.44969,-0.6061 -0.68431,-1.48592 -0.70386,-2.61991h6.06099v-0.70386c0,-0.52789 -0.09776,-1.03623 -0.25417,-1.50547c-0.15641,-0.48879 -0.41058,-0.89937 -0.76251,-1.2513c-0.17596,-0.17596 -0.37148,-0.33238 -0.6061,-0.48879c-0.21507,-0.13686 -0.46924,-0.25417 -0.76251,-0.37148c-0.27372,-0.09776 -0.58655,-0.17596 -0.93848,-0.23462c-0.35193,-0.0391 -0.74296,-0.07821 -1.1731,-0.07821c-0.78206,0 -1.48592,0.13686 -2.11157,0.41058c-0.6452,0.27372 -1.15354,0.62565 -1.56413,1.05579c-0.43013,0.44969 -0.76251,0.95803 -0.99713,1.52502c-0.21507,0.567 -0.33238,1.1731 -0.33238,1.79875c0,0.70386 0.09776,1.34906 0.31283,1.91606c0.21507,0.58655 0.52789,1.09489 0.95803,1.52502c0.43013,0.44969 0.95803,0.78206 1.62278,1.05579c0.6452,0.25417 1.42727,0.37148 2.34619,0.37148c0.50834,0 0.99713,-0.05865 1.42727,-0.17596c0.43013,-0.13686 0.84072,-0.29327 1.2513,-0.52789c0.37148,-0.23462 0.70386,-0.50834 1.03623,-0.82117c0.31283,-0.33238 0.6061,-0.68431 0.84072,-1.05579zM313.26753,270.15325c0.0391,-0.95803 0.17596,-1.62278 0.43013,-2.05292c0.25417,-0.43013 0.58655,-0.6452 0.99713,-0.6452c0.44969,0 0.78206,0.27372 0.97758,0.78206c0.07821,0.23462 0.13686,0.52789 0.17596,0.86027c0.0391,0.33238 0.05865,0.68431 0.05865,1.01668z"
                    data-paper-data="{&quot;glyphName&quot;:&quot;e&quot;,&quot;glyphIndex&quot;:4,&quot;word&quot;:1}">
                </path>
                <path
                    d="M327.31208,275.7841c0.6061,0.23462 1.42727,0.37148 2.20933,0.37148c0.52789,0 1.03623,-0.05865 1.44682,-0.19552c1.2904,-0.41058 2.22888,-1.2904 2.83498,-2.5026l-0.84072,-0.58655c-0.35193,0.6061 -0.70386,1.05579 -1.09489,1.32951c-0.41058,0.29327 -0.86027,0.43013 -1.30996,0.43013c-0.72341,0 -1.44682,-0.35193 -1.8965,-0.93848c-0.48879,-0.6452 -0.72341,-1.46637 -0.72341,-2.5026c0,-0.91892 0.09776,-2.13112 0.58655,-2.95229c0.17596,-0.29327 0.37148,-0.48879 0.567,-0.6061c0.19552,-0.09776 0.44969,-0.17596 0.68431,-0.17596c0.23462,0 0.46924,0.07821 0.62565,0.25417c-0.13686,0.46924 -0.31283,0.86027 -0.31283,1.48592c0,0.91892 0.89937,1.27085 1.68144,1.27085c1.05579,0 1.66188,-0.66475 1.66188,-1.50547c0,-0.33238 -0.09776,-0.68431 -0.29327,-1.03623c-0.68431,-1.15354 -2.18978,-1.42727 -3.42153,-1.42727c-2.81543,0 -5.25938,1.91606 -5.25938,4.80969c0,2.07247 0.86027,3.7148 2.85453,4.47731z"
                    data-paper-data="{&quot;glyphName&quot;:&quot;c&quot;,&quot;glyphIndex&quot;:5,&quot;word&quot;:1}">
                </path>
                <path
                    d="M345.75575,274.43505c-0.33238,0.05865 -0.87982,0.13686 -1.32951,0.13686c-0.25417,0 -0.46924,-0.01955 -0.6452,-0.09776c-0.48879,-0.19552 -0.58655,-0.76251 -0.62565,-1.23175v-5.45489h2.48305v-1.1731h-2.48305v-4.61417l-0.15641,-0.19552l-1.13399,0.09776c-0.70386,3.40198 -1.56413,4.77059 -4.14494,4.98565v0.89937h2.22888v5.59175c0,0.87982 0.23462,1.56413 0.70386,2.03336c0.46924,0.46924 1.19265,0.70386 2.15067,0.70386c1.09489,0 1.95516,-0.25417 2.95229,-0.70386z"
                    data-paper-data="{&quot;glyphName&quot;:&quot;t&quot;,&quot;glyphIndex&quot;:6,&quot;lastGlyphOfWord&quot;:true,&quot;word&quot;:1}">
                </path>
                <path
                    d="M363.58027,276.05783h5.494v-0.0391c-0.48879,-0.33238 -1.01668,-1.23175 -1.01668,-2.77633c0,-0.78206 0,-2.69812 0.29327,-3.26511c0.82117,-1.50547 1.97471,-3.0696 2.89363,-4.45776c0.50834,-0.78206 1.15354,-1.30996 2.07247,-1.44682v-1.2513h-5.41579v1.2513c0.43013,0.07821 0.82117,0.13686 1.2122,0.29327c0.48879,0.21507 0.6061,0.52789 0.6061,0.80161c0,0.13686 -0.0391,0.27372 -0.07821,0.35193c-0.6061,1.36861 -1.50547,2.60036 -2.15067,3.59749c-1.23175,-2.07247 -2.40484,-4.18404 -3.57794,-6.29561h-4.94655l0.0391,1.1731h0.13686c0.89937,0 1.66188,0.37148 2.24843,1.2904c0.97758,1.54458 1.87695,3.14781 2.79588,4.75104l0.19552,0.33238c0.13686,0.19552 0.19552,0.41058 0.19552,0.6452c0.01955,0.37148 0.01955,0.74296 0.01955,1.11444v1.11444c0,1.52502 -0.54744,2.44395 -1.01668,2.77633z"
                    data-paper-data="{&quot;glyphName&quot;:&quot;Y&quot;,&quot;glyphIndex&quot;:7,&quot;firstGlyphOfWord&quot;:true,&quot;word&quot;:2}">
                </path>
                <path
                    d="M385.75829,267.84616c-1.09489,-0.99713 -2.48305,-1.34906 -3.91032,-1.34906c-2.07247,0 -4.10583,0.87982 -4.94655,2.89363c-0.23462,0.567 -0.35193,1.2122 -0.35193,1.95516c0,1.34906 0.46924,2.63946 1.50547,3.53884c1.03623,0.91892 2.34619,1.27085 3.7148,1.27085c1.44682,0 2.89363,-0.41058 3.98852,-1.40771c0.89937,-0.91892 1.40771,-2.18978 1.40771,-3.48018c0,-1.2904 -0.44969,-2.52215 -1.40771,-3.42153zM383.27524,274.08312c-0.27372,0.74296 -0.74296,1.11444 -1.40771,1.11444c-1.11444,0 -1.44682,-0.89937 -1.64233,-1.77919c-0.17596,-0.74296 -0.17596,-1.44682 -0.17596,-2.20933c0,-0.46924 0.01955,-0.93848 0.05865,-1.38816c0.11731,-1.01668 0.48879,-2.36574 1.75964,-2.36574c1.68144,0 1.79875,2.60036 1.79875,3.79301c0,1.2513 -0.13686,2.18978 -0.39103,2.83498z"
                    data-paper-data="{&quot;glyphName&quot;:&quot;o&quot;,&quot;glyphIndex&quot;:8,&quot;word&quot;:2}">
                </path>
                <path
                    d="M399.17719,275.86231l0.15641,0.19552h4.18404c-0.50834,-0.29327 -1.07534,-1.2904 -1.15354,-2.75677c0,-0.29327 -0.01955,-0.58655 -0.01955,-0.86027v-5.5722l-0.17596,-0.19552l-4.18404,0.21507v0.0391c0.50834,0.29327 1.07534,1.15354 1.15354,2.63946c0.0391,0.80161 0.0391,1.60323 0.0391,2.40484v1.60323c-0.41058,0.567 -1.07534,0.95803 -1.77919,0.95803c-0.37148,0 -0.68431,-0.15641 -0.89937,-0.41058c-0.21507,-0.27372 -0.31283,-0.70386 -0.31283,-1.27085v-5.94368l-0.15641,-0.23462l-4.51642,0.23462v0.87982c0.70386,0.0391 1.48592,0.25417 1.48592,1.11444v4.02763c0,1.01668 0.25417,1.8183 0.76251,2.38529c0.48879,0.567 1.2122,0.84072 2.17023,0.84072c0.52789,0 0.93848,-0.0391 1.19265,-0.13686c0.80161,-0.27372 1.44682,-0.6452 2.05292,-1.2513z"
                    data-paper-data="{&quot;glyphName&quot;:&quot;u&quot;,&quot;glyphIndex&quot;:9,&quot;word&quot;:2}">
                </path>
                <path
                    d="M412.36148,269.13657c0.33238,-0.39103 0.84072,-0.78206 1.38816,-0.89937c-0.05865,0.23462 -0.09776,0.44969 -0.09776,0.6452c0,0.89937 0.6452,1.46637 1.68144,1.46637c1.01668,0 1.66188,-0.87982 1.66188,-1.8183c0,-1.1731 -0.78206,-1.97471 -1.97471,-1.97471c-1.09489,0 -1.97471,0.62565 -2.65902,1.42727v-1.13399l-0.19552,-0.19552l-4.45776,0.23462v0.87982c0.68431,0.05865 1.48592,0.33238 1.48592,1.15354v4.3209c0,1.52502 -0.54744,2.44395 -1.01668,2.77633v0.0391h5.12252v-0.0391c-0.44969,-0.33238 -0.93848,-1.23175 -0.93848,-2.77633z"
                    data-paper-data="{&quot;glyphName&quot;:&quot;r&quot;,&quot;glyphIndex&quot;:10,&quot;lastGlyphOfWord&quot;:true,&quot;word&quot;:2}">
                </path>
                <path
                    d="M430.42062,276.05783h11.22261l0.19552,-0.19552v-4.14494h-1.11444c-0.09776,0.68431 -1.2904,3.28467 -2.15067,3.28467h-2.34619c-1.30996,0 -1.32951,-0.15641 -1.32951,-1.62278v-7.72288c0,-1.54458 0.52789,-2.4635 0.99713,-2.77633v-0.0391h-5.47444v0.0391c0.48879,0.31283 1.01668,1.2122 1.01668,2.77633v7.58601c0,1.52502 -0.54744,2.44395 -1.01668,2.77633z"
                    data-paper-data="{&quot;glyphName&quot;:&quot;L&quot;,&quot;glyphIndex&quot;:11,&quot;firstGlyphOfWord&quot;:true,&quot;word&quot;:3}">
                </path>
                <path
                    d="M451.28868,266.84903l-0.17596,-0.17596l-4.55552,0.23462v0.86027c0.68431,0.09776 1.58368,0.31283 1.58368,1.1731v4.30135c0,1.52502 -0.54744,2.44395 -1.01668,2.77633v0.0391h5.12252v-0.0391c-0.44969,-0.33238 -0.95803,-1.23175 -0.95803,-2.77633zM451.34734,263.56436c0,-1.03623 -0.87982,-1.75964 -1.87695,-1.75964c-0.99713,0 -1.87695,0.72341 -1.87695,1.75964c0,1.01668 0.91892,1.75964 1.87695,1.75964c0.97758,0 1.87695,-0.74296 1.87695,-1.75964z"
                    data-paper-data="{&quot;glyphName&quot;:&quot;i&quot;,&quot;glyphIndex&quot;:12,&quot;word&quot;:3}">
                </path>
                <path
                    d="M464.78579,264.81567c0.52789,-0.25417 0.80161,-0.78206 0.80161,-1.30996c0,-0.46924 -0.21507,-0.93848 -0.62565,-1.2513c-0.43013,-0.29327 -1.03623,-0.44969 -1.8183,-0.44969c-1.38816,0 -2.85453,0.48879 -3.73435,1.60323c-0.70386,0.86027 -1.13399,2.09202 -1.1731,3.20646h-1.79875v1.1731h1.79875v5.45489c0,1.52502 -0.54744,2.44395 -1.01668,2.77633v0.0391h5.14207v-0.0391c-0.44969,-0.33238 -0.97758,-1.23175 -0.97758,-2.77633c0,-1.74009 0.01955,-3.7148 0.01955,-5.45489h2.4635v-1.1731h-2.48305v-0.82117c0,-1.05579 0.05865,-2.52215 0.62565,-2.93274c0.31283,0.70386 0.58655,1.23175 0.84072,1.54458c0.31283,0.35193 0.82117,0.54744 1.2904,0.54744c0.23462,0 0.44969,-0.0391 0.6452,-0.13686z"
                    data-paper-data="{&quot;glyphName&quot;:&quot;f&quot;,&quot;glyphIndex&quot;:13,&quot;word&quot;:3}">
                </path>
                <path
                    d="M477.52039,272.94913c-0.15641,0.23462 -0.33238,0.46924 -0.52789,0.66475c-0.19552,0.21507 -0.41058,0.39103 -0.62565,0.52789c-0.21507,0.15641 -0.44969,0.27372 -0.70386,0.37148c-0.23462,0.07821 -0.48879,0.11731 -0.76251,0.11731c-0.97758,0 -1.68144,-0.29327 -2.13112,-0.87982c-0.44969,-0.6061 -0.68431,-1.48592 -0.70386,-2.61991h6.06099v-0.70386c0,-0.52789 -0.09776,-1.03623 -0.25417,-1.50547c-0.15641,-0.48879 -0.41058,-0.89937 -0.76251,-1.2513c-0.17596,-0.17596 -0.37148,-0.33238 -0.6061,-0.48879c-0.21507,-0.13686 -0.46924,-0.25417 -0.76251,-0.37148c-0.27372,-0.09776 -0.58655,-0.17596 -0.93848,-0.23462c-0.35193,-0.0391 -0.74296,-0.07821 -1.1731,-0.07821c-0.78206,0 -1.48592,0.13686 -2.11157,0.41058c-0.6452,0.27372 -1.15354,0.62565 -1.56413,1.05579c-0.43013,0.44969 -0.76251,0.95803 -0.99713,1.52502c-0.21507,0.567 -0.33238,1.1731 -0.33238,1.79875c0,0.70386 0.09776,1.34906 0.31283,1.91606c0.21507,0.58655 0.52789,1.09489 0.95803,1.52502c0.43013,0.44969 0.95803,0.78206 1.62278,1.05579c0.6452,0.25417 1.42727,0.37148 2.34619,0.37148c0.50834,0 0.99713,-0.05865 1.42727,-0.17596c0.43013,-0.13686 0.84072,-0.29327 1.2513,-0.52789c0.37148,-0.23462 0.70386,-0.50834 1.03623,-0.82117c0.31283,-0.33238 0.6061,-0.68431 0.84072,-1.05579zM472.0655,270.15325c0.0391,-0.95803 0.17596,-1.62278 0.43013,-2.05292c0.25417,-0.43013 0.58655,-0.6452 0.99713,-0.6452c0.44969,0 0.78206,0.27372 0.97758,0.78206c0.07821,0.23462 0.13686,0.52789 0.17596,0.86027c0.0391,0.33238 0.05865,0.68431 0.05865,1.01668z"
                    data-paper-data="{&quot;glyphName&quot;:&quot;e&quot;,&quot;glyphIndex&quot;:14,&quot;lastGlyphOfWord&quot;:true,&quot;word&quot;:3}">
                </path>
            </g>
            <g data-paper-data="{&quot;isPrimaryText&quot;:true}" fill-rule="nonzero">
                <path
                    d="M269.09897,208.02829v0l1.26971,-10.97928c-3.21163,-1.41909 -6.7967,-2.09129 -10.53115,-2.09129c-36.14948,0 -36.22417,54.22422 0,54.22422c3.73445,0 8.43986,-0.89627 11.72617,-2.24067l-1.41909,-11.05397c-2.0166,1.04565 -5.67636,2.39005 -10.30708,2.39005c-21.13699,0 -21.13699,-32.56441 0,-32.56441c4.63072,0 7.24483,1.26971 9.26144,2.31536z"
                    data-paper-data="{&quot;glyphName&quot;:&quot;C&quot;,&quot;glyphIndex&quot;:0,&quot;firstGlyphOfWord&quot;:true,&quot;word&quot;:1}">
                </path>
                <path
                    d="M325.20286,249.03256v-53.40264h-10.68053v21.36106h-15.98345v-21.36106h-10.68053v53.40264h10.68053v-21.36106h15.98345v21.36106z"
                    data-paper-data="{&quot;glyphName&quot;:&quot;H&quot;,&quot;glyphIndex&quot;:1,&quot;word&quot;:1}">
                </path>
                <path
                    d="M340.2278,249.03256h12.09962l2.09129,-5.75105h17.7013l2.16598,5.75105h12.02493l-22.48139,-55.34456h-1.12034zM358.30254,233.27318l5.00416,-13.89216l4.85479,13.89216z"
                    data-paper-data="{&quot;glyphName&quot;:&quot;A&quot;,&quot;glyphIndex&quot;:2,&quot;word&quot;:1}">
                </path>
                <path d="M417.54338,249.03256v-42.72211h13.29464v-10.60584h-37.26982v10.60584h13.29464v42.72211z"
                    data-paper-data="{&quot;glyphName&quot;:&quot;T&quot;,&quot;glyphIndex&quot;:3,&quot;word&quot;:1}">
                </path>
                <path
                    d="M485,230.435v-34.80508h-10.60584v34.73039c0,11.20335 -17.32785,11.20335 -17.32785,0v-34.73039h-10.68053v34.80508c0,25.39426 38.61422,25.39426 38.61422,0z"
                    data-paper-data="{&quot;glyphName&quot;:&quot;U&quot;,&quot;glyphIndex&quot;:4,&quot;lastGlyphOfWord&quot;:true,&quot;word&quot;:1}">
                </path>
            </g>
            <g data-paper-data="{&quot;isIcon&quot;:&quot;true&quot;,&quot;iconType&quot;:&quot;icon&quot;,&quot;rawIconId&quot;:&quot;30c71d37-cf12-4bd5-bff2-2000e4b11930&quot;,&quot;selectedEffects&quot;:{&quot;container&quot;:&quot;&quot;,&quot;transformation&quot;:&quot;&quot;,&quot;pattern&quot;:&quot;&quot;},&quot;isDetailed&quot;:false,&quot;fillRule&quot;:&quot;nonzero&quot;,&quot;bounds&quot;:{&quot;x&quot;:65,&quot;y&quot;:177.43861656869973,&quot;width&quot;:102.10049303150413,&quot;height&quot;:115.12202626702765},&quot;iconStyle&quot;:&quot;standalone&quot;,&quot;suitableAsStandaloneIcon&quot;:true}"
                fill-rule="evenodd">
                <g data-paper-data="{&quot;isPathIcon&quot;:true}">
                    <path
                        d="M121.08501,195.14962c0,0.984 0.492,1.476 1.476,1.476c0.984,0 1.476,-0.492 1.476,-1.476v-16.235c0,-0.984 -0.492,-1.476 -1.476,-1.476c-0.984,0 -1.476,0.492 -1.476,1.476zM112.52501,178.32362c-0.984,0.197 -1.378,0.738 -1.181,1.624l2.805,16.087c0.196,0.788 0.688,1.181 1.475,1.181h0.296c0.984,-0.197 1.377,-0.787 1.18,-1.771l-2.804,-15.94c-0.197,-0.984 -0.787,-1.378 -1.771,-1.181zM102.93101,180.83262c-0.983,0.295 -1.279,0.935 -0.885,1.919l5.461,15.202c0.295,0.689 0.787,1.033 1.476,1.033c0.197,0 0.344,-0.049 0.443,-0.147c0.885,-0.394 1.18,-1.034 0.885,-1.919l-5.608,-15.202c-0.394,-0.886 -0.984,-1.181 -1.772,-0.886zM134.81202,196.92062c-0.296,0.885 0,1.525 0.885,1.919c0.099,0.098 0.246,0.147 0.443,0.147c0.59,0 1.082,-0.344 1.476,-1.033l5.461,-15.202c0.295,-0.984 0,-1.624 -0.886,-1.919c-0.787,-0.295 -1.377,0 -1.771,0.886zM141.15802,199.72462c-0.492,0.886 -0.295,1.575 0.591,2.067c0.098,0.098 0.344,0.147 0.737,0.147c0.591,0 0.984,-0.246 1.181,-0.738l8.118,-14.021c0.492,-0.787 0.344,-1.476 -0.443,-2.067c-0.88533,-0.39333 -1.574,-0.19633 -2.066,0.591zM85.5155,190.86962c-0.6888,0.59 -0.738,1.279 -0.1476,2.066l10.4791,12.398c0.2952,0.393 0.6396,0.59 1.0331,0.59c0.3936,0 0.738,-0.147 1.0332,-0.443c0.7872,-0.59 0.8364,-1.279 0.1476,-2.066l-10.4791,-12.398c-0.5904,-0.787 -1.2792,-0.836 -2.0663,-0.147zM147.06202,203.41462c-0.689,0.787 -0.64,1.476 0.147,2.066c0.296,0.296 0.591,0.443 0.886,0.443c0.492,0 0.886,-0.197 1.181,-0.59l10.331,-12.398c0.591,-0.59 0.541,-1.279 -0.147,-2.066c-0.787,-0.591 -1.476,-0.492 -2.067,0.295zM78.1358,199.06062c0,0.443 0.1968,0.763 0.5904,0.959l12.3978,10.48c0.3936,0.196 0.6888,0.295 0.8856,0.295c0.4919,0 0.8855,-0.148 1.1807,-0.443c0.6888,-0.787 0.6396,-1.476 -0.1476,-2.066l-12.3978,-10.48c-0.7872,-0.59 -1.5251,-0.541 -2.2139,0.148c-0.1968,0.295 -0.2952,0.664 -0.2952,1.107zM152.08002,208.13762c-0.689,0.689 -0.738,1.427 -0.148,2.214c0.296,0.295 0.689,0.443 1.181,0.443c0.197,0 0.492,-0.099 0.886,-0.295l12.398,-10.48c0.787,-0.59 0.836,-1.279 0.147,-2.066c-0.197,-0.295 -0.516,-0.467 -0.959,-0.516c-0.443,-0.05 -0.812,0.073 -1.107,0.368zM72.8224,206.21862c-0.4919,0.787 -0.3443,1.476 0.4428,2.067l14.0214,7.97c0.3936,0.196 0.6396,0.295 0.738,0.295c0.5903,0 1.0331,-0.246 1.3283,-0.738c0.492,-0.886 0.2952,-1.574 -0.5904,-2.066l-14.0214,-8.118c-0.2951,-0.197 -0.6395,-0.246 -1.0331,-0.148c-0.3936,0.099 -0.6888,0.345 -0.8856,0.738zM68.5422,215.22263c-0.3935,0.983 -0.0984,1.623 0.8856,1.918l15.2021,5.609h0.4428c0.6888,0 1.1807,-0.295 1.4759,-0.886c0.3936,-0.885 0.0984,-1.525 -0.8855,-1.919l-15.3497,-5.608c-0.984,-0.394 -1.5744,-0.098 -1.7712,0.886zM66.1069,226.07063c0.246,0.344 0.5658,0.516 0.9594,0.516l15.9401,2.952h0.2952c0.7871,0 1.2791,-0.443 1.4759,-1.328c0.1968,-0.886 -0.1968,-1.427 -1.1808,-1.624l-15.94,-2.804c-0.984,-0.197 -1.5744,0.197 -1.7711,1.181c-0.0984,0.393 -0.0246,0.762 0.2213,1.107zM65,234.99963c0,0.984 0.492,1.476 1.4759,1.476h16.2353c0.984,0 1.4759,-0.492 1.4759,-1.476c0,-0.984 -0.4919,-1.476 -1.4759,-1.476h-16.2353c-0.9839,0 -1.4759,0.492 -1.4759,1.476zM84.7775,241.64163c-0.1968,-0.984 -0.738,-1.378 -1.6235,-1.181l-16.0877,2.804c-0.9839,0.197 -1.3775,0.738 -1.1807,1.624c0.1968,0.885 0.6887,1.328 1.4759,1.328c0.0984,0 0.1968,-0.049 0.2952,-0.148l15.9401,-2.804c0.9839,-0.197 1.3775,-0.738 1.1807,-1.623zM86.5486,248.13563c-0.2952,-0.984 -0.9347,-1.279 -1.9187,-0.886l-15.3497,5.461c-0.984,0.394 -1.2791,1.033 -0.8856,1.919c0.2952,0.689 0.7872,1.033 1.476,1.033c0.0984,0 0.1722,-0.025 0.2214,-0.074c0.0492,-0.049 0.123,-0.074 0.2214,-0.074l15.3497,-5.608c0.8855,-0.394 1.1807,-0.984 0.8855,-1.771zM89.35291,254.03963c-0.5904,-0.788 -1.23,-0.935 -1.9187,-0.443l-14.169,8.117c-0.8855,0.492 -1.0823,1.181 -0.5903,2.067c0.2951,0.492 0.7379,0.738 1.3283,0.738c0.0984,0 0.3444,-0.099 0.738,-0.296l14.1689,-8.117c0.7872,-0.591 0.9348,-1.279 0.4428,-2.066zM93.19031,259.64764c-0.5904,-0.787 -1.2791,-0.885 -2.0663,-0.295l-12.3978,10.479c-0.7872,0.59 -0.8856,1.279 -0.2952,2.066c0.3936,0.394 0.7871,0.591 1.1807,0.591c0.3936,0 0.6888,-0.148 0.8856,-0.443l12.5454,-10.332c0.6888,-0.688 0.738,-1.377 0.1476,-2.066zM98.06091,266.43664c0.5904,-0.787 0.5412,-1.525 -0.1476,-2.214c-0.7872,-0.59 -1.4759,-0.491 -2.0663,0.296l-10.4791,12.398c-0.5904,0.787 -0.492,1.475 0.2952,2.066c0.1967,0.197 0.4919,0.295 0.8855,0.295c0.492,0 0.8856,-0.148 1.1808,-0.443zM159.46002,278.98264c0.688,-0.689 0.738,-1.378 0.147,-2.066l-10.331,-12.398c-0.197,-0.296 -0.517,-0.468 -0.96,-0.517c-0.442,-0.049 -0.811,0.074 -1.107,0.369c-0.295,0.197 -0.467,0.517 -0.516,0.959c-0.049,0.443 0.074,0.812 0.369,1.107l10.331,12.398c0.296,0.295 0.689,0.443 1.181,0.443c0.197,0 0.492,-0.098 0.886,-0.295zM103.96501,270.12664c0.492,-0.885 0.295,-1.574 -0.591,-2.066c-0.885,-0.394 -1.574,-0.197 -2.066,0.59l-7.9701,14.022c-0.492,0.885 -0.3444,1.574 0.4428,2.066c0.1968,0.098 0.4428,0.148 0.738,0.148c0.5903,0 1.0331,-0.246 1.3283,-0.738zM143.81502,268.65064c-0.591,-0.787 -1.279,-0.934 -2.066,-0.443c-0.394,0.197 -0.64,0.492 -0.738,0.886c-0.099,0.394 -0.05,0.738 0.147,1.033l8.118,14.022c0.197,0.492 0.639,0.738 1.328,0.738c0.295,0 0.541,-0.05 0.738,-0.148c0.787,-0.492 0.935,-1.181 0.443,-2.066zM110.31101,272.93064c0.394,-0.885 0.099,-1.525 -0.885,-1.918c-0.886,-0.394 -1.526,-0.099 -1.919,0.885l-5.609,15.35c-0.196,0.984 0.099,1.574 0.886,1.771c0.197,0.099 0.393,0.148 0.59,0.148c0.78733,0 1.23033,-0.34433 1.329,-1.033zM135.69702,271.01264c-0.984,0.393 -1.279,1.033 -0.885,1.918l5.608,15.203c0.19667,0.68867 0.63967,1.033 1.329,1.033c0.196,0 0.344,-0.049 0.442,-0.148c0.886,-0.295 1.181,-0.935 0.886,-1.919l-5.461,-15.202c-0.394,-0.984 -1.033,-1.279 -1.919,-0.885zM111.34401,289.90464c-0.197,0.984 0.197,1.574 1.181,1.771h0.295c0.787,0 1.279,-0.443 1.476,-1.328l2.804,-15.941c0.099,-0.393 0.025,-0.762 -0.221,-1.107c-0.246,-0.344 -0.566,-0.516 -0.959,-0.516c-0.984,-0.197 -1.575,0.197 -1.771,1.181zM129.20301,272.78364c-0.984,0.197 -1.377,0.738 -1.181,1.623l2.805,15.94c0.196,0.788 0.688,1.181 1.476,1.181h0.295c0.984,-0.197 1.377,-0.787 1.18,-1.771l-2.804,-15.792c-0.197,-0.984 -0.787,-1.378 -1.771,-1.181zM121.08501,291.08464c0,0.984 0.492,1.476 1.476,1.476c0.984,0 1.476,-0.492 1.476,-1.476v-16.235c0,-0.984 -0.492,-1.476 -1.476,-1.476c-0.984,0 -1.476,0.492 -1.476,1.476z">
                    </path>
                    <path
                        d="M129.20301,197.06862c-0.984,-0.197 -1.377,-0.738 -1.181,-1.624l2.805,-16.088c0.196,-0.984 0.787,-1.377 1.771,-1.18c0.984,0.196 1.377,0.787 1.18,1.771l-2.804,15.94c-0.197,0.885 -0.689,1.328 -1.476,1.328c-0.098,0 -0.197,-0.049 -0.295,-0.147zM93.19031,187.17962c-0.3936,-0.886 -0.1968,-1.575 0.5904,-2.067c0.88553,-0.49133 1.5743,-0.29433 2.0663,0.591l8.118,14.021c0.393,0.984 0.196,1.624 -0.591,1.919c-0.393,0.197 -0.639,0.295 -0.738,0.295c-0.59,0 -1.03267,-0.246 -1.328,-0.738zM166.54402,269.83164c0.689,0.689 0.738,1.378 0.148,2.066c-0.295,0.394 -0.689,0.591 -1.181,0.591c-0.197,0 -0.492,-0.099 -0.886,-0.295l-12.545,-10.48c-0.787,-0.688 -0.836,-1.377 -0.148,-2.066c0.29533,-0.39333 0.61533,-0.61467 0.96,-0.664c0.344,-0.04933 0.713,0.07367 1.107,0.369z">
                    </path>
                </g>
            </g>
            <path d="M193.33926,292.56138v-115.12277h1.85946v115.12277z"
                data-paper-data="{&quot;isShapeTextSeparator&quot;:true}" fill-rule="nonzero"></path>
        </g>
    </g>

</svg>