<svg xmlns:mydata="http://www.w4.org/2000/svg"
    xmlns="http://www.w3.org/2000/svg" xmlns:xlink="http://www.w3.org/1999/xlink"
    viewBox="65 177.43861656869973 102.10049303150413 115.12202626702765">
    <g fill-rule="none"
        stroke="none" stroke-width="1"
        stroke-linecap="butt"
        stroke-linejoin="miter" stroke-miterlimit="10" stroke-dasharray="" stroke-dashoffset="0"
        font-family="none"
        font-weight="none" font-size="none" text-anchor="none"
        style="mix-blend-mode: normal;fill= rgb(255, 255, 255)">
        <g
            data-paper-data="{&quot;isIcon&quot;:&quot;true&quot;,&quot;iconType&quot;:&quot;icon&quot;,&quot;rawIconId&quot;:&quot;30c71d37-cf12-4bd5-bff2-2000e4b11930&quot;,&quot;selectedEffects&quot;:{&quot;container&quot;:&quot;&quot;,&quot;transformation&quot;:&quot;&quot;,&quot;pattern&quot;:&quot;&quot;},&quot;isDetailed&quot;:false,&quot;fillRule&quot;:&quot;nonzero&quot;,&quot;bounds&quot;:{&quot;x&quot;:65,&quot;y&quot;:177.43861656869973,&quot;width&quot;:102.10049303150413,&quot;height&quot;:115.12202626702765},&quot;iconStyle&quot;:&quot;standalone&quot;,&quot;suitableAsStandaloneIcon&quot;:true}"
            fill-rule="evenodd">
            <g data-paper-data="{&quot;isPathIcon&quot;:true}">
                <path
                    d="M121.08501,195.14962c0,0.984 0.492,1.476 1.476,1.476c0.984,0 1.476,-0.492 1.476,-1.476v-16.235c0,-0.984 -0.492,-1.476 -1.476,-1.476c-0.984,0 -1.476,0.492 -1.476,1.476zM112.52501,178.32362c-0.984,0.197 -1.378,0.738 -1.181,1.624l2.805,16.087c0.196,0.788 0.688,1.181 1.475,1.181h0.296c0.984,-0.197 1.377,-0.787 1.18,-1.771l-2.804,-15.94c-0.197,-0.984 -0.787,-1.378 -1.771,-1.181zM102.93101,180.83262c-0.983,0.295 -1.279,0.935 -0.885,1.919l5.461,15.202c0.295,0.689 0.787,1.033 1.476,1.033c0.197,0 0.344,-0.049 0.443,-0.147c0.885,-0.394 1.18,-1.034 0.885,-1.919l-5.608,-15.202c-0.394,-0.886 -0.984,-1.181 -1.772,-0.886zM134.81202,196.92062c-0.296,0.885 0,1.525 0.885,1.919c0.099,0.098 0.246,0.147 0.443,0.147c0.59,0 1.082,-0.344 1.476,-1.033l5.461,-15.202c0.295,-0.984 0,-1.624 -0.886,-1.919c-0.787,-0.295 -1.377,0 -1.771,0.886zM141.15802,199.72462c-0.492,0.886 -0.295,1.575 0.591,2.067c0.098,0.098 0.344,0.147 0.737,0.147c0.591,0 0.984,-0.246 1.181,-0.738l8.118,-14.021c0.492,-0.787 0.344,-1.476 -0.443,-2.067c-0.88533,-0.39333 -1.574,-0.19633 -2.066,0.591zM85.5155,190.86962c-0.6888,0.59 -0.738,1.279 -0.1476,2.066l10.4791,12.398c0.2952,0.393 0.6396,0.59 1.0331,0.59c0.3936,0 0.738,-0.147 1.0332,-0.443c0.7872,-0.59 0.8364,-1.279 0.1476,-2.066l-10.4791,-12.398c-0.5904,-0.787 -1.2792,-0.836 -2.0663,-0.147zM147.06202,203.41462c-0.689,0.787 -0.64,1.476 0.147,2.066c0.296,0.296 0.591,0.443 0.886,0.443c0.492,0 0.886,-0.197 1.181,-0.59l10.331,-12.398c0.591,-0.59 0.541,-1.279 -0.147,-2.066c-0.787,-0.591 -1.476,-0.492 -2.067,0.295zM78.1358,199.06062c0,0.443 0.1968,0.763 0.5904,0.959l12.3978,10.48c0.3936,0.196 0.6888,0.295 0.8856,0.295c0.4919,0 0.8855,-0.148 1.1807,-0.443c0.6888,-0.787 0.6396,-1.476 -0.1476,-2.066l-12.3978,-10.48c-0.7872,-0.59 -1.5251,-0.541 -2.2139,0.148c-0.1968,0.295 -0.2952,0.664 -0.2952,1.107zM152.08002,208.13762c-0.689,0.689 -0.738,1.427 -0.148,2.214c0.296,0.295 0.689,0.443 1.181,0.443c0.197,0 0.492,-0.099 0.886,-0.295l12.398,-10.48c0.787,-0.59 0.836,-1.279 0.147,-2.066c-0.197,-0.295 -0.516,-0.467 -0.959,-0.516c-0.443,-0.05 -0.812,0.073 -1.107,0.368zM72.8224,206.21862c-0.4919,0.787 -0.3443,1.476 0.4428,2.067l14.0214,7.97c0.3936,0.196 0.6396,0.295 0.738,0.295c0.5903,0 1.0331,-0.246 1.3283,-0.738c0.492,-0.886 0.2952,-1.574 -0.5904,-2.066l-14.0214,-8.118c-0.2951,-0.197 -0.6395,-0.246 -1.0331,-0.148c-0.3936,0.099 -0.6888,0.345 -0.8856,0.738zM68.5422,215.22263c-0.3935,0.983 -0.0984,1.623 0.8856,1.918l15.2021,5.609h0.4428c0.6888,0 1.1807,-0.295 1.4759,-0.886c0.3936,-0.885 0.0984,-1.525 -0.8855,-1.919l-15.3497,-5.608c-0.984,-0.394 -1.5744,-0.098 -1.7712,0.886zM66.1069,226.07063c0.246,0.344 0.5658,0.516 0.9594,0.516l15.9401,2.952h0.2952c0.7871,0 1.2791,-0.443 1.4759,-1.328c0.1968,-0.886 -0.1968,-1.427 -1.1808,-1.624l-15.94,-2.804c-0.984,-0.197 -1.5744,0.197 -1.7711,1.181c-0.0984,0.393 -0.0246,0.762 0.2213,1.107zM65,234.99963c0,0.984 0.492,1.476 1.4759,1.476h16.2353c0.984,0 1.4759,-0.492 1.4759,-1.476c0,-0.984 -0.4919,-1.476 -1.4759,-1.476h-16.2353c-0.9839,0 -1.4759,0.492 -1.4759,1.476zM84.7775,241.64163c-0.1968,-0.984 -0.738,-1.378 -1.6235,-1.181l-16.0877,2.804c-0.9839,0.197 -1.3775,0.738 -1.1807,1.624c0.1968,0.885 0.6887,1.328 1.4759,1.328c0.0984,0 0.1968,-0.049 0.2952,-0.148l15.9401,-2.804c0.9839,-0.197 1.3775,-0.738 1.1807,-1.623zM86.5486,248.13563c-0.2952,-0.984 -0.9347,-1.279 -1.9187,-0.886l-15.3497,5.461c-0.984,0.394 -1.2791,1.033 -0.8856,1.919c0.2952,0.689 0.7872,1.033 1.476,1.033c0.0984,0 0.1722,-0.025 0.2214,-0.074c0.0492,-0.049 0.123,-0.074 0.2214,-0.074l15.3497,-5.608c0.8855,-0.394 1.1807,-0.984 0.8855,-1.771zM89.35291,254.03963c-0.5904,-0.788 -1.23,-0.935 -1.9187,-0.443l-14.169,8.117c-0.8855,0.492 -1.0823,1.181 -0.5903,2.067c0.2951,0.492 0.7379,0.738 1.3283,0.738c0.0984,0 0.3444,-0.099 0.738,-0.296l14.1689,-8.117c0.7872,-0.591 0.9348,-1.279 0.4428,-2.066zM93.19031,259.64764c-0.5904,-0.787 -1.2791,-0.885 -2.0663,-0.295l-12.3978,10.479c-0.7872,0.59 -0.8856,1.279 -0.2952,2.066c0.3936,0.394 0.7871,0.591 1.1807,0.591c0.3936,0 0.6888,-0.148 0.8856,-0.443l12.5454,-10.332c0.6888,-0.688 0.738,-1.377 0.1476,-2.066zM98.06091,266.43664c0.5904,-0.787 0.5412,-1.525 -0.1476,-2.214c-0.7872,-0.59 -1.4759,-0.491 -2.0663,0.296l-10.4791,12.398c-0.5904,0.787 -0.492,1.475 0.2952,2.066c0.1967,0.197 0.4919,0.295 0.8855,0.295c0.492,0 0.8856,-0.148 1.1808,-0.443zM159.46002,278.98264c0.688,-0.689 0.738,-1.378 0.147,-2.066l-10.331,-12.398c-0.197,-0.296 -0.517,-0.468 -0.96,-0.517c-0.442,-0.049 -0.811,0.074 -1.107,0.369c-0.295,0.197 -0.467,0.517 -0.516,0.959c-0.049,0.443 0.074,0.812 0.369,1.107l10.331,12.398c0.296,0.295 0.689,0.443 1.181,0.443c0.197,0 0.492,-0.098 0.886,-0.295zM103.96501,270.12664c0.492,-0.885 0.295,-1.574 -0.591,-2.066c-0.885,-0.394 -1.574,-0.197 -2.066,0.59l-7.9701,14.022c-0.492,0.885 -0.3444,1.574 0.4428,2.066c0.1968,0.098 0.4428,0.148 0.738,0.148c0.5903,0 1.0331,-0.246 1.3283,-0.738zM143.81502,268.65064c-0.591,-0.787 -1.279,-0.934 -2.066,-0.443c-0.394,0.197 -0.64,0.492 -0.738,0.886c-0.099,0.394 -0.05,0.738 0.147,1.033l8.118,14.022c0.197,0.492 0.639,0.738 1.328,0.738c0.295,0 0.541,-0.05 0.738,-0.148c0.787,-0.492 0.935,-1.181 0.443,-2.066zM110.31101,272.93064c0.394,-0.885 0.099,-1.525 -0.885,-1.918c-0.886,-0.394 -1.526,-0.099 -1.919,0.885l-5.609,15.35c-0.196,0.984 0.099,1.574 0.886,1.771c0.197,0.099 0.393,0.148 0.59,0.148c0.78733,0 1.23033,-0.34433 1.329,-1.033zM135.69702,271.01264c-0.984,0.393 -1.279,1.033 -0.885,1.918l5.608,15.203c0.19667,0.68867 0.63967,1.033 1.329,1.033c0.196,0 0.344,-0.049 0.442,-0.148c0.886,-0.295 1.181,-0.935 0.886,-1.919l-5.461,-15.202c-0.394,-0.984 -1.033,-1.279 -1.919,-0.885zM111.34401,289.90464c-0.197,0.984 0.197,1.574 1.181,1.771h0.295c0.787,0 1.279,-0.443 1.476,-1.328l2.804,-15.941c0.099,-0.393 0.025,-0.762 -0.221,-1.107c-0.246,-0.344 -0.566,-0.516 -0.959,-0.516c-0.984,-0.197 -1.575,0.197 -1.771,1.181zM129.20301,272.78364c-0.984,0.197 -1.377,0.738 -1.181,1.623l2.805,15.94c0.196,0.788 0.688,1.181 1.476,1.181h0.295c0.984,-0.197 1.377,-0.787 1.18,-1.771l-2.804,-15.792c-0.197,-0.984 -0.787,-1.378 -1.771,-1.181zM121.08501,291.08464c0,0.984 0.492,1.476 1.476,1.476c0.984,0 1.476,-0.492 1.476,-1.476v-16.235c0,-0.984 -0.492,-1.476 -1.476,-1.476c-0.984,0 -1.476,0.492 -1.476,1.476z">
                </path>
                <path
                    d="M129.20301,197.06862c-0.984,-0.197 -1.377,-0.738 -1.181,-1.624l2.805,-16.088c0.196,-0.984 0.787,-1.377 1.771,-1.18c0.984,0.196 1.377,0.787 1.18,1.771l-2.804,15.94c-0.197,0.885 -0.689,1.328 -1.476,1.328c-0.098,0 -0.197,-0.049 -0.295,-0.147zM93.19031,187.17962c-0.3936,-0.886 -0.1968,-1.575 0.5904,-2.067c0.88553,-0.49133 1.5743,-0.29433 2.0663,0.591l8.118,14.021c0.393,0.984 0.196,1.624 -0.591,1.919c-0.393,0.197 -0.639,0.295 -0.738,0.295c-0.59,0 -1.03267,-0.246 -1.328,-0.738zM166.54402,269.83164c0.689,0.689 0.738,1.378 0.148,2.066c-0.295,0.394 -0.689,0.591 -1.181,0.591c-0.197,0 -0.492,-0.099 -0.886,-0.295l-12.545,-10.48c-0.787,-0.688 -0.836,-1.377 -0.148,-2.066c0.29533,-0.39333 0.61533,-0.61467 0.96,-0.664c0.344,-0.04933 0.713,0.07367 1.107,0.369z">
                </path>
            </g>
        </g>
    </g>
</svg>